<svg version="1.1" xmlns="http://www.w3.org/2000/svg" xmlns:xlink="http://www.w3.org/1999/xlink">
    <symbol id="icon-vk" viewBox="0 0 511.998 511.998">
      <path d="M489.25,335.681c-11.137-13.347-23.719-25.264-35.888-36.789c-4.276-4.051-8.7-8.24-12.96-12.399
        c-0.001-0.001-0.002-0.002-0.003-0.003c-5.73-5.589-8.535-9.556-8.828-12.486c-0.288-2.88,1.68-7.153,6.207-13.469
        c6.769-9.5,13.984-19.016,20.964-28.218c6.204-8.18,12.618-16.639,18.766-25.146l1.38-1.91
        c11.995-16.602,24.397-33.769,31.043-54.689c1.898-5.998,3.869-14.874-0.885-22.666c-4.756-7.794-13.573-10.104-19.787-11.162
        c-3.035-0.52-5.915-0.563-8.595-0.563l-77.806-0.069c-13.452-0.224-22.784,6.152-27.87,18.956
        c-4.07,10.226-8.877,22.077-14.446,33.319c-10.655,21.703-24.194,46.7-43.818,67.527l-0.872,0.928
        c-1.336,1.426-3.519,3.758-4.64,4.293c-2.126-1.336-4.579-8.977-4.467-12.98c0.003-0.099,0.004-0.197,0.004-0.295l-0.069-89.903
        c0-0.457-0.032-0.914-0.093-1.367c-1.745-12.826-5.147-25.684-25.447-29.69c-0.651-0.129-1.313-0.193-1.975-0.193h-80.935
        c-15.227,0-23.281,6.973-29.738,14.533c-1.869,2.204-6.835,8.056-4.305,15.21c2.56,7.239,10.188,8.684,12.692,9.158
        c8.82,1.674,13.381,6.659,14.793,16.189c2.791,18.517,3.133,38.326,1.078,62.309c-0.573,6.439-1.639,11.333-3.359,15.403
        c-0.476,1.127-0.894,1.825-1.186,2.236c-0.466-0.188-1.191-0.548-2.195-1.235c-6.198-4.241-10.869-10.834-15.386-17.208
        c-18.042-25.473-33.218-53.607-46.401-86.022c-5.429-13.283-15.635-20.702-28.719-20.894c-24.928-0.415-47.983-0.405-70.459,0.032
        c-10.601,0.184-18.035,3.521-22.099,9.92c-4.069,6.411-3.92,14.585,0.444,24.299c31.196,69.37,59.522,119.834,91.842,163.628
        c22.757,30.832,45.665,52.234,72.092,67.354c27.766,15.885,59.08,23.67,95.408,23.669c4.131,0,8.334-0.101,12.593-0.304
        c22.413-1.021,31.532-9.936,32.527-31.765c0.558-11.537,1.842-20.883,6.297-29.003c1.246-2.273,2.652-3.797,3.76-4.076
        c1.178-0.294,3.267,0.427,5.59,1.936c4.247,2.758,7.904,6.498,10.911,9.781c3.048,3.337,6.128,6.784,9.109,10.117
        c6.343,7.097,12.902,14.436,19.774,21.436c15.543,15.844,33.461,23.11,53.278,21.588l71.205,0.033c0.002,0,0.003,0,0.004,0
        c0.226,0,0.452-0.007,0.678-0.022c8.213-0.547,15.314-5.094,19.484-12.478c5.021-8.892,4.945-20.155-0.207-30.14
        C502.359,352.01,495.384,343.075,489.25,335.681z M490.181,382.502c-0.982,1.739-2.193,2.056-2.818,2.132l-71.19-0.033
        c-0.002,0-0.004,0-0.007,0c-0.281,0-0.562,0.011-0.841,0.035c-14.025,1.168-25.946-3.762-37.474-15.512
        c-6.539-6.662-12.937-13.819-19.124-20.741c-3.015-3.373-6.132-6.862-9.264-10.29c-3.884-4.242-8.685-9.117-14.854-13.123
        c-9.236-5.995-16.89-5.814-21.683-4.606c-4.743,1.195-11.485,4.605-16.66,14.049c-6.704,12.219-8.183,25.401-8.785,37.854
        c-0.348,7.616-1.636,9.628-2.174,10.139c-0.705,0.67-3.061,1.848-10.922,2.207c-37.776,1.776-69.478-4.989-96.931-20.696
        c-23.882-13.664-44.794-33.291-65.809-61.762c-31.425-42.579-59.075-91.887-89.65-159.877c-1.108-2.463-1.45-4-1.549-4.823
        c0.78-0.256,2.304-0.593,4.976-0.642c22.248-0.431,45.062-0.443,69.765-0.031c3.382,0.05,7.233,1.065,10.149,8.2
        c13.774,33.869,29.685,63.344,48.645,90.112c5.034,7.105,11.3,15.949,20.509,22.25c8.435,5.776,15.28,5.5,19.538,4.252
        c4.26-1.249,10.172-4.719,14.154-14.147c2.569-6.077,4.122-12.92,4.891-21.566c2.197-25.653,1.807-46.981-1.225-67.098
        c-2.137-14.413-9.579-24.825-21.302-30.142c2.082-1.084,4.428-1.536,7.686-1.536h79.877c4.494,1.008,5.384,2.192,5.689,2.597
        c1.294,1.721,2.034,5.792,2.486,8.973l0.068,89.074c-0.18,8.539,3.97,27.477,18.1,32.67c0.116,0.043,0.233,0.083,0.35,0.121
        c12.864,4.204,21.373-4.877,25.941-9.756l0.814-0.866c21.496-22.815,35.971-49.473,47.28-72.508
        c5.894-11.895,10.886-24.199,15.107-34.805c2.112-5.319,4.034-6.195,8.62-6.098c0.063,0.002,0.125,0.002,0.189,0.002l77.905,0.069
        c1.812,0,3.703,0.021,5.17,0.272c3.712,0.632,5.241,1.402,5.745,1.721c0.052,0.591,0.04,2.291-1.082,5.839
        c-5.651,17.789-16.572,32.903-28.133,48.905l-1.381,1.913c-6.007,8.312-12.35,16.675-18.483,24.764
        c-7.07,9.321-14.378,18.958-21.307,28.684c-14.814,20.669-13.512,34.385,4.975,52.417c4.369,4.265,8.847,8.507,13.179,12.609
        c12.281,11.633,23.882,22.62,34.235,35.026c5.42,6.534,11.564,14.381,16.042,23.029
        C491.954,376.286,491.381,380.376,490.181,382.502z"/>
      <path d="M74.382,169.635c-1.498-2.964-2.983-5.936-4.454-8.914c-2.496-5.049-8.608-7.123-13.661-4.627
        c-5.05,2.495-7.122,8.611-4.627,13.661c1.499,3.034,3.012,6.062,4.537,9.081c1.795,3.552,5.386,5.6,9.11,5.6
        c1.546,0,3.117-0.353,4.592-1.098C74.908,180.796,76.923,174.662,74.382,169.635z"/>
      <path d="M138.353,275.441c-16.724-22.659-32.37-47.27-47.83-75.239c-2.725-4.93-8.931-6.716-13.86-3.992
        c-4.929,2.725-6.717,8.931-3.992,13.86c15.896,28.756,32.013,54.102,49.271,77.485c2,2.71,5.087,4.143,8.214,4.143
        c2.104,0,4.226-0.648,6.048-1.995C140.735,286.359,141.697,279.974,138.353,275.441z"/>
    </symbol>
    <symbol id="icon-inst" viewBox="0 0 512 512">
      <path d="m382 0h-146c-5.523438 0-10 4.476562-10 10s4.476562 10 10 10h146c60.652344 0 110 49.34375 110 110v252c0 60.65625-49.347656 110-110 110h-252c-60.652344 0-110-49.34375-110-110v-252c0-60.65625 49.347656-110 110-110h26c5.523438 0 10-4.476562 10-10s-4.476562-10-10-10h-26c-71.683594 0-130 58.316406-130 130v252c0 71.683594 58.316406 130 130 130h252c71.683594 0 130-58.316406 130-130v-252c0-71.683594-58.316406-130-130-130zm0 0"/><path d="m356 472h26c49.625 0 90-40.375 90-90v-252c0-49.625-40.375-90-90-90h-252c-49.625 0-90 40.375-90 90v252c0 49.625 40.375 90 90 90h146c5.523438 0 10-4.476562 10-10s-4.476562-10-10-10h-146c-38.597656 0-70-31.402344-70-70v-252c0-38.597656 31.402344-70 70-70h252c38.597656 0 70 31.402344 70 70v252c0 38.597656-31.402344 70-70 70h-26c-5.523438 0-10 4.476562-10 10s4.476562 10 10 10zm0 0"/><path d="m366 256c0-60.652344-49.347656-110-110-110s-110 49.347656-110 110 49.347656 110 110 110 110-49.347656 110-110zm-110 90c-49.625 0-90-40.375-90-90s40.375-90 90-90 90 40.375 90 90-40.375 90-90 90zm0 0"/><path d="m256 186c-38.597656 0-70 31.402344-70 70s31.402344 70 70 70 70-31.402344 70-70-31.402344-70-70-70zm0 120c-27.570312 0-50-22.429688-50-50s22.429688-50 50-50 50 22.429688 50 50-22.429688 50-50 50zm0 0"/><path d="m422 130.003906c0-22.058594-17.945312-40-40-40-22.058594 0-40 17.941406-40 40 0 22.054688 17.941406 40 40 40 22.054688 0 40-17.945312 40-40zm-60 0c0-11.03125 8.972656-20 20-20s20 8.96875 20 20c0 11.027344-8.972656 20-20 20s-20-8.972656-20-20zm0 0"/><path d="m196.003906 20c5.523438 0 10-4.476562 10-10s-4.476562-10-10-10h-.007812c-5.519532 0-9.996094 4.476562-9.996094 10s4.480469 10 10.003906 10zm0 0"/><path d="m315.996094 452c-5.523438 0-9.996094 4.476562-9.996094 10s4.480469 10 10.003906 10c5.523438 0 10-4.476562 10-10s-4.476562-10-10-10zm0 0"/>
    </symbol>
    <symbol id="icon-description" viewBox="-72 0 480 480">
      <path d="m312 0h-288c-13.601562 0-24 10.398438-24 24v432c0 13.601562 10.398438 24 24 24h219.199219l92.800781-92.800781v-363.199219c0-13.601562-10.398438-24-24-24zm8 380.800781-72 72v-52.800781c0-4.800781 3.199219-8 8-8h40v-16h-40c-13.601562 0-24 10.398438-24 24v64h-208c-4.800781 0-8-3.199219-8-8v-432c0-4.800781 3.199219-8 8-8h288c4.800781 0 8 3.199219 8 8zm0 0"/><path d="m120 48h96v16h-96zm0 0"/><path d="m64 264h208v16h-208zm0 0"/><path d="m64 304h208v16h-208zm0 0"/><path d="m64 344h208v16h-208zm0 0"/><path d="m64 384h136v16h-136zm0 0"/><path d="m240 212.800781v-97.601562l-72-36-72 36v97.601562l72 36zm-72-62.402343-20-12 48-27.199219 20 9.601562zm10.398438-48-45.597657 26.402343-12.800781-8 48-24zm-66.398438 32 48 29.601562v46.398438h16v-46.398438l48-29.601562v68.800781l-56 28-56-28zm0 0"/>
    </symbol>
    <symbol id="icon-arrow-up" viewBox="0 0 64 64">
      <path d="m32 56c1.104 0 2-.896 2-2v-39.899l14.552 15.278c.393.413.92.621 1.448.621.495 0 .992-.183 1.379-.552.8-.762.831-2.028.069-2.828l-16.619-17.448c-.756-.755-1.76-1.172-2.829-1.172s-2.073.417-2.862 1.207l-16.586 17.414c-.762.8-.731 2.066.069 2.828s2.067.731 2.828-.069l14.551-15.342v39.962c0 1.104.896 2 2 2z"/>
    </symbol>
    <symbol id="icon-youtube" viewBox="0 -74 512.00063 512">
      <path d="m329.847656 343.492188c-23.492187.796874-48.335937 1.199218-73.847656 1.199218-73.746094 0-138.996094-3.308594-174.550781-8.851562-37.988281-5.921875-53.082031-23.621094-57.6875-67.628906-5.035157-48.148438-5.035157-123.582032 0-171.730469 4.605469-44.007813 19.699219-61.703125 57.6875-67.625 6.167969-.964844 13.414062-1.878907 21.542969-2.722657 5.496093-.570312 9.488281-5.484374 8.917968-10.980468-.570312-5.492188-5.492187-9.488282-10.980468-8.914063-8.46875.878907-16.058594 1.839844-22.5625 2.851563-23.695313 3.695312-40.304688 11.652344-52.265626 25.039062-12.308593 13.765625-19.371093 32.917969-22.234374 60.273438-5.15625 49.316406-5.15625 126.574218 0 175.890625 2.863281 27.355469 9.925781 46.503906 22.234374 60.273437 11.960938 13.386719 28.570313 21.34375 52.265626 25.035156 36.511718 5.695313 102.917968 9.09375 177.632812 9.09375 25.734375 0 50.808594-.40625 74.523438-1.210937 5.519531-.1875 9.84375-4.8125 9.65625-10.332031-.1875-5.519532-4.789063-9.84375-10.332032-9.660156zm0 0"/><path d="m508.132812 94.402344c-2.863281-27.351563-9.925781-46.503906-22.230468-60.273438-11.964844-13.386718-28.574219-21.34375-52.269532-25.035156-36.515624-5.695312-102.921874-9.09375-177.632812-9.09375-25.734375 0-50.804688.410156-74.519531 1.210938-5.523438.1875-9.847657 4.8125-9.660157 10.332031.1875 5.523437 4.792969 9.855469 10.335938 9.660156 23.488281-.796875 48.335938-1.199219 73.847656-1.199219 73.738282 0 138.992188 3.308594 174.550782 8.851563 37.984374 5.925781 53.082031 23.621093 57.683593 67.628906 5.039063 48.148437 5.039063 123.582031 0 171.730469-4.601562 44.007812-19.699219 61.703125-57.683593 67.628906-6.167969.960938-13.417969 1.875-21.546876 2.71875-5.492187.570312-9.484374 5.484375-8.914062 10.980469.535156 5.144531 4.875 8.96875 9.933594 8.96875.347656 0 .695312-.019531 1.046875-.054688 8.464843-.878906 16.054687-1.835937 22.558593-2.851562 23.695313-3.695313 40.304688-11.648438 52.269532-25.035157 12.304687-13.769531 19.367187-32.921874 22.230468-60.273437 5.15625-49.316406 5.15625-126.578125 0-175.894531zm0 0"/><path d="m338.421875 173.839844-123.773437-76.472656c-3.085938-1.90625-6.960938-1.992188-10.128907-.226563-3.164062 1.765625-5.128906 5.109375-5.128906 8.734375v152.941406c0 3.625 1.964844 6.96875 5.128906 8.734375 1.519531.84375 3.195313 1.265625 4.871094 1.265625 1.828125 0 3.648437-.5 5.257813-1.492187l123.773437-76.46875c2.949219-1.824219 4.746094-5.042969 4.746094-8.507813 0-3.46875-1.796875-6.6875-4.746094-8.507812zm-119.027344 67.042968v-117.070312l94.742188 58.535156zm0 0"/><path d="m141.84375 23.035156c.222656 0 .449219-.007812.675781-.019531 5.511719-.367187 9.679688-5.132813 9.3125-10.644531-.367187-5.511719-5.140625-9.6875-10.644531-9.316406h-.007812c-5.511719.367187-9.675782 5.132812-9.308594 10.644531.351562 5.285156 4.75 9.335937 9.972656 9.335937zm0 0"/><path d="m369.484375 341.683594c-5.511719.363281-9.683594 5.128906-9.316406 10.640625.351562 5.285156 4.75 9.335937 9.96875 9.335937.226562 0 .449219-.007812.675781-.019531h.007812c5.511719-.367187 9.675782-5.132813 9.308594-10.644531-.367187-5.511719-5.125-9.675782-10.644531-9.3125zm0 0"/>
    </symbol>
    <symbol id="icon-back" viewBox="0 0 477.175 477.175">
      <path d="M145.188,238.575l215.5-215.5c5.3-5.3,5.3-13.8,0-19.1s-13.8-5.3-19.1,0l-225.1,225.1c-5.3,5.3-5.3,13.8,0,19.1l225.1,225
        c2.6,2.6,6.1,4,9.5,4s6.9-1.3,9.5-4c5.3-5.3,5.3-13.8,0-19.1L145.188,238.575z"/>
    </symbol>
    <symbol id="icon-next" viewBox="0 0 477.175 477.175">
      <path d="M360.731,229.075l-225.1-225.1c-5.3-5.3-13.8-5.3-19.1,0s-5.3,13.8,0,19.1l215.5,215.5l-215.5,215.5
        c-5.3,5.3-5.3,13.8,0,19.1c2.6,2.6,6.1,4,9.5,4c3.4,0,6.9-1.3,9.5-4l225.1-225.1C365.931,242.875,365.931,234.275,360.731,229.075z
        "/>
    </symbol>
    <symbol id="icon-question" viewBox="0 0 512 512">
      <path d="m437.019531 74.980469c-48.351562-48.351563-112.640625-74.980469-181.019531-74.980469-61.554688 0-121.039062 22.160156-167.5 62.402344-3.175781 2.75-3.519531 7.554687-.769531 10.726562 2.75 3.175782 7.550781 3.519532 10.726562.769532 43.695313-37.847657 99.644531-58.691407 157.542969-58.691407 64.316406 0 124.785156 25.046875 170.265625 70.527344s70.527344 105.949219 70.527344 170.265625-25.046875 124.785156-70.527344 170.265625-105.949219 70.527344-170.265625 70.527344-124.785156-25.046875-170.265625-70.527344-70.527344-105.949219-70.527344-170.265625c0-59.824219 22.082031-117.175781 62.183594-161.484375 2.816406-3.113281 2.574219-7.921875-.539063-10.742187-3.113281-2.816407-7.921874-2.578126-10.738281.539062-42.632812 47.109375-66.113281 108.082031-66.113281 171.6875 0 68.378906 26.628906 132.667969 74.980469 181.019531 48.351562 48.351563 112.640625 74.980469 181.019531 74.980469s132.667969-26.628906 181.019531-74.980469c48.351563-48.351562 74.980469-112.640625 74.980469-181.019531s-26.628906-132.667969-74.980469-181.019531zm0 0"/><path d="m246.332031 347.125c-23.480469 0-42.585937 19.3125-42.585937 43.046875s19.105468 43.046875 42.585937 43.046875c11.527344 0 22.382813-4.585938 30.566407-12.917969 7.929687-8.074219 12.480468-19.054687 12.480468-30.128906 0-11.378906-4.511718-22.15625-12.699218-30.347656-8.191407-8.1875-18.96875-12.699219-30.347657-12.699219zm0 70.886719c-15.097656 0-27.378906-12.488281-27.378906-27.839844s12.28125-27.839844 27.378906-27.839844c15.089844 0 27.835938 12.75 27.835938 27.839844s-12.746094 27.839844-27.835938 27.839844zm0 0"/><path d="m319.605469 228.371094c3.167969 2.765625 7.96875 2.4375 10.730469-.726563 18.324218-20.992187 27.617187-42.96875 27.617187-65.316406 0-23.566406-10.585937-44.929687-29.804687-60.152344-19.320313-15.300781-45.539063-23.386719-75.828126-23.386719-37.46875 0-60.644531 12.648438-73.484374 23.257813-15.527344 12.828125-24.800782 30.03125-24.800782 46.015625 0 10.390625 4.253906 19.542969 11.980469 25.773438 6.359375 5.128906 14.828125 8.070312 23.242187 8.070312 14.496094 0 20.851563-9.371094 25.957032-16.902344 6.46875-9.535156 12.574218-18.542968 35.71875-18.542968 7.933594 0 33.820312 1.710937 33.820312 23.695312 0 16.59375-15.339844 28.371094-28.875 38.761719-3.34375 2.5625-6.5 4.988281-9.445312 7.488281-15.585938 13.433594-33.480469 34.183594-33.480469 75.726562 0 23.074219 5.597656 38.445313 32.921875 38.445313 12.101562 0 21.238281-2.742187 27.15625-8.148437 4.96875-4.539063 7.597656-10.878907 7.597656-18.335938 0-22.414062 0-33.664062 22.859375-51.542969l.390625-.304687c1.007813-.785156 2.171875-1.695313 3.453125-2.730469 3.269531-2.636719 3.78125-7.421875 1.144531-10.691406-2.636718-3.269531-7.421874-3.78125-10.691406-1.144531-1.214844.980468-2.3125 1.835937-3.261718 2.578124l-.402344.3125c-27.367188 21.40625-28.699219 37.292969-28.699219 63.527344 0 3.371094 0 11.273438-19.546875 11.273438-9.546875 0-12.453125-1.996094-13.917969-3.738282-2.554687-3.035156-3.796875-9.414062-3.796875-19.5 0-35.160156 14.257813-52.1875 28.15625-64.167968 2.621094-2.222656 5.632813-4.535156 8.824219-6.984375 15.511719-11.910157 34.824219-26.734375 34.824219-50.824219 0-23.632812-19.246094-38.902344-49.03125-38.902344-31.203125 0-41.085938 14.574219-48.304688 25.214844-4.933594 7.277344-7.183594 10.230469-13.371094 10.230469-8.042968 0-20.011718-4.964844-20.011718-18.636719 0-8.878906 5.0625-22.550781 19.277344-34.292969 10.921874-9.019531 30.851562-19.777343 63.800781-19.777343 53.242187 0 90.421875 28.101562 90.421875 68.335937 0 18.5625-8.027344 37.171875-23.863282 55.316406-2.765624 3.164063-2.4375 7.964844.722657 10.726563zm0 0"/>
    </symbol>
    <symbol id="icon-phone" viewBox="0 0 505.709 505.709">
    	<path d="M427.554,71.862c-99.206-95.816-256.486-95.816-355.692,0c-98.222,101.697-95.405,263.762,6.292,361.984
        c99.206,95.816,256.486,95.816,355.692,0C532.068,332.15,529.251,170.084,427.554,71.862z M421.814,421.814l-0.085-0.085
        c-93.352,93.267-244.636,93.198-337.903-0.154S-9.372,176.94,83.98,83.673s244.636-93.198,337.903,0.153
        c44.799,44.84,69.946,105.643,69.905,169.028C491.792,316.225,466.622,377.002,421.814,421.814z"/>
      <path d="M396.641,325.729l-47.957-47.787c-10.884-10.91-28.552-10.931-39.462-0.047c-0.016,0.016-0.031,0.031-0.047,0.047
        l-27.477,27.477c-2.079,2.084-5.355,2.372-7.765,0.683c-15.039-10.51-29.117-22.333-42.069-35.328
        c-11.6-11.574-22.271-24.042-31.915-37.291c-1.748-2.38-1.494-5.68,0.597-7.765l28.16-28.16c10.872-10.893,10.872-28.531,0-39.424
        l-47.957-47.957c-11.051-10.565-28.458-10.565-39.509,0l-15.189,15.189c-22.939,22.681-31.128,56.359-21.163,87.04
        c7.436,22.447,17.947,43.755,31.232,63.317c11.96,17.934,25.681,34.628,40.96,49.835c16.611,16.73,35.011,31.581,54.869,44.288
        c21.83,14.245,45.799,24.904,70.997,31.573c6.478,1.597,13.126,2.399,19.797,2.389c22.871-0.14,44.752-9.346,60.843-25.6
        l13.056-13.056C407.513,354.26,407.513,336.622,396.641,325.729z M384.557,353.514c-0.011,0.011-0.022,0.023-0.034,0.034
        l0.085-0.256l-13.056,13.056c-16.775,16.987-41.206,23.976-64.427,18.432c-23.395-6.262-45.635-16.23-65.877-29.525
        c-18.806-12.019-36.234-26.069-51.968-41.899c-14.477-14.371-27.483-30.151-38.827-47.104
        c-12.408-18.242-22.229-38.114-29.184-59.051c-7.973-24.596-1.366-51.585,17.067-69.717l15.189-15.189
        c4.223-4.242,11.085-4.257,15.326-0.034c0.011,0.011,0.023,0.022,0.034,0.034l47.957,47.957
        c4.242,4.223,4.257,11.085,0.034,15.326c-0.011,0.011-0.022,0.022-0.034,0.034l-28.16,28.16
        c-8.08,7.992-9.096,20.692-2.389,29.867c10.185,13.978,21.456,27.131,33.707,39.339c13.659,13.718,28.508,26.197,44.373,37.291
        c9.167,6.394,21.595,5.316,29.525-2.56l27.221-27.648c4.223-4.242,11.085-4.257,15.326-0.034c0.011,0.011,0.022,0.022,0.034,0.034
        l48.043,48.128C388.765,342.411,388.78,349.272,384.557,353.514z"/>
    </symbol>
    <symbol id="icon-whatsup" viewBox="-1 0 511 512">
      <g fill-rule="evenodd"><path d="m255.851562 50c112.46875 0 203.617188 91.152344 203.617188 203.621094s-91.148438 203.617187-203.617188 203.617187c-34.277343 0-67.742187-8.480469-97.796874-24.980469l-14.125-7.753906-75.921876 20.519532 20.699219-73.867188-8.609375-14.667969c-18.359375-31.289062-27.867187-66.59375-27.867187-102.867187 0-112.46875 91.152343-203.621094 203.621093-203.621094zm-117.042968 417.320312c34.734375 19.070313 74.621094 29.917969 117.042968 29.917969 134.546876 0 243.617188-109.070312 243.617188-243.617187 0-134.550782-109.070312-243.621094-243.617188-243.621094-134.550781 0-243.621093 109.070312-243.621093 243.621094 0 44.914062 12.167969 86.984375 33.371093 123.113281l-35.101562 125.265625zm0 0" fill="#fff"/><path d="m459.46875 253.621094c0-112.46875-91.148438-203.621094-203.617188-203.621094s-203.621093 91.152344-203.621093 203.621094c0 36.273437 9.507812 71.578125 27.871093 102.867187l8.605469 14.667969-20.699219 73.867188 75.921876-20.519532 14.128906 7.753906c30.050781 16.5 63.515625 24.980469 97.792968 24.980469 112.46875 0 203.617188-91.148437 203.617188-203.617187zm-261.710938-10.386719c9.160157 15.867187 25.152344 33.699219 39.933594 45.144531 17.855469 13.824219 45.863282 31.988282 54.96875 23.933594 4.296875-3.800781 16.121094-20.933594 17.695313-22.15625 1.578125-1.226562 6.824219-9.988281 19.210937-3.984375 12.382813 6.007813 43.28125 21.335937 43.28125 21.335937s6.695313 2.703126 6.410156 13.195313c-.28125 10.488281-.738281 13.175781-.738281 13.175781s-4.488281 35.972656-53.589843 37.40625c-22.226563.648438-47.964844-8.414062-70.769532-20.046875-38.925781-19.847656-63.238281-41.785156-89.238281-75.90625-17.65625-23.167969-35.292969-53.609375-32.175781-80.667969 5.410156-46.949218 35.265625-51.277343 35.265625-51.277343s2.703125-.324219 13.199219-.109375c10.492187.214844 12.871093 7.03125 12.871093 7.03125s14.496094 33.105468 19.90625 45.761718c5.410157 12.65625-.433593 18.171876-1.730469 19.6875-1.296874 1.515626-9.085937 10.710938-13.089843 14.820313-4.003907 4.109375-3.050781 9.808594-1.410157 12.65625zm0 0" fill="#2bb140"/><path d="m213.984375 196.066406c-5.40625-12.65625-19.902344-45.757812-19.902344-45.757812s-2.378906-6.816406-12.875-7.03125c-10.492187-.214844-13.199219.109375-13.199219.109375s-29.855468 4.328125-35.265624 51.277343c-3.117188 27.058594 14.519531 57.496094 32.175781 80.667969 26.003906 34.121094 50.316406 56.058594 89.238281 75.90625 22.808594 11.628907 48.546875 20.695313 70.773438 20.046875 49.101562-1.433594 53.589843-37.40625 53.589843-37.40625s.453125-2.6875.738281-13.179687c.285157-10.488281-6.410156-13.191407-6.410156-13.191407s-30.898437-15.328124-43.285156-21.335937c-12.382812-6.007813-17.632812 2.757813-19.207031 3.980469-1.574219 1.226562-13.402344 18.359375-17.699219 22.160156-9.101562 8.054688-37.113281-10.109375-54.96875-23.933594-14.777344-11.445312-30.769531-29.277344-39.929688-45.144531-1.644531-2.847656-2.597656-8.546875 1.40625-12.660156 4.003907-4.109375 11.792969-13.304688 13.089844-14.816407 1.300782-1.515624 7.140625-7.03125 1.730469-19.691406zm0 0" fill="#fff"/></g><path d="m435.1875 74.28125c-47.902344-47.898438-111.59375-74.28125-179.335938-74.28125-53.28125 0-104.277343 16.34375-147.472656 47.269531-4.492187 3.214844-5.527344 9.460938-2.3125 13.953125 3.21875 4.492188 9.464844 5.523438 13.953125 2.308594 39.78125-28.476562 86.75-43.53125 135.832031-43.53125 128.816407 0 233.617188 104.800781 233.617188 233.621094 0 128.816406-104.800781 233.617187-233.617188 233.617187-39.242187 0-78.050781-9.917969-112.230468-28.683593-2.269532-1.242188-4.929688-1.558594-7.421875-.886719l-111.320313 30.085937 30.351563-108.320312c.734375-2.617188.371093-5.417969-1.003907-7.757813-20.933593-35.671875-31.996093-76.492187-31.996093-118.054687 0-49.085938 15.054687-96.054688 43.53125-135.832032 3.214843-4.488281 2.179687-10.734374-2.308594-13.949218-4.492187-3.214844-10.738281-2.183594-13.953125 2.308594-30.925781 43.191406-47.269531 94.1875-47.269531 147.472656 0 43.683594 11.261719 86.617187 32.609375 124.460937l-33.96875 121.21875c-.972656 3.464844-.003906 7.183594 2.523437 9.738281 1.90625 1.917969 4.472657 2.960938 7.105469 2.960938.871094 0 1.746094-.113281 2.609375-.347656l124.464844-33.636719c36.238281 19.128906 77.042969 29.222656 118.273437 29.222656 67.746094 0 131.4375-26.378906 179.335938-74.285156 47.902344-47.898437 74.285156-111.589844 74.285156-179.335937 0-67.742188-26.378906-131.429688-74.28125-179.335938zm0 0"/><path d="m419.769531 374.839844c4.59375 3.066406 10.804688 1.828125 13.871094-2.765625 23.4375-35.117188 35.828125-76.078125 35.828125-118.457031 0-57.0625-22.21875-110.710938-62.5625-151.054688s-93.988281-62.5625-151.054688-62.5625c-57.066406 0-110.714843 22.21875-151.058593 62.5625s-62.5625 93.992188-62.5625 151.058594c0 38.007812 10.113281 75.328125 29.246093 107.929687l6.453126 11-19.550782 69.773438c-.972656 3.460937-.007812 7.179687 2.523438 9.734375 2.53125 2.554687 6.242187 3.554687 9.714844 2.617187l72.03125-19.46875 10.59375 5.816407c31.242187 17.152343 66.722656 26.214843 102.605468 26.214843 42.382813 0 83.34375-12.390625 118.457032-35.832031 4.59375-3.0625 5.832031-9.273438 2.765624-13.867188-3.066406-4.59375-9.273437-5.832031-13.867187-2.765624-31.816406 21.238281-68.9375 32.464843-107.355469 32.464843-32.527344 0-64.679687-8.210937-92.980468-23.746093l-14.125-7.757813c-2.265626-1.242187-4.925782-1.558594-7.421876-.886719l-58.9375 15.929688 15.953126-56.925782c.730468-2.617187.371093-5.417968-1.003907-7.757812l-8.609375-14.667969c-17.332031-29.535156-26.492187-63.355469-26.492187-97.808593 0-106.761719 86.859375-193.617188 193.621093-193.617188 106.761719 0 193.617188 86.855469 193.617188 193.621094 0 38.410156-11.226562 75.53125-32.464844 107.351562-3.066406 4.59375-1.828125 10.800782 2.765625 13.867188zm0 0"/><path d="m219.304688 222.902344.660156-.769532c8.957031-10.054687 6.695312-21.863281 3.21875-29.996093-5.136719-12.011719-18.574219-42.714844-19.847656-45.621094-1.984376-5.015625-8.605469-12.960937-21.921876-13.238281-10.382812-.210938-13.796874.082031-14.59375.179687-.082031.007813-.164062.019531-.242187.03125-1.53125.222657-37.546875 6.050781-43.765625 60.03125-2.859375 24.816407 8.632812 54.378907 34.15625 87.875 28.257812 37.082031 54.234375 59.164063 92.648438 78.75 19.128906 9.753907 47.070312 21.171875 73.082031 21.171875.84375 0 1.6875-.011718 2.523437-.039062 29.214844-.851563 44.816406-12.992188 52.757813-23.027344 8.429687-10.652344 10.191406-21.148438 10.445312-22.96875.167969-1.15625.574219-4.804688.832031-14.308594.359376-13.316406-7.265624-20.308594-12.179687-22.53125-2.777344-1.378906-31.410156-15.574218-43.148437-21.265625-7.925782-3.847656-19.578126-6.042969-30.066407 5.335938-.054687.058593-.105469.117187-.15625.167969-1.417969 1.238281-2.820312 3.085937-7.082031 8.789062-2.625 3.511719-7.863281 10.519531-10.089844 12.859375-4.703125.332031-20.429687-6.59375-42.722656-23.855469-14.050781-10.882812-29.054688-27.824218-37.355469-42.175781-.082031-.203125-.132812-.574219-.109375-.761719 3.441406-3.539062 9.042969-10.042968 12.957032-14.632812zm12.261718 73.382812c6.664063 5.160156 19.730469 14.773438 32.363282 21.183594 5.972656 3.027344 24.148437 12.25 35.355468 2.332031 3.09375-2.738281 7.488282-8.507812 13.355469-16.359375 1.691406-2.261718 3.769531-5.039062 4.574219-6 .523437-.476562.957031-.945312 1.351562-1.375 1.800782-1.953125 2.621094-2.84375 6.632813-.898437 12.046875 5.84375 42.101562 20.75 43.179687 21.28125.371094.371093.949219 1.578125.882813 3.980469-.222657 8.289062-.546875 11.285156-.613281 11.847656-.042969.207031-.023438.082031-.046876.308594-.117187.679687-1.375 7.382812-6.886718 13.964843-7.773438 9.289063-20.246094 14.246094-37.074219 14.734375-22.5.667969-48.269531-9.945312-65.941406-18.957031-35.953125-18.335937-59.214844-38.136719-85.828125-73.058594-21.96875-28.828125-32.410156-54.234375-30.195313-73.464843 4.171875-36.207032 24.015625-41.894532 26.675781-42.496094.9375-.058594 4.109376-.191406 11.648438-.035156 2.402344.050781 3.578125.6875 3.933594 1.074218.496094 1.132813 14.59375 33.335938 19.855468 45.648438 2.628907 6.152344 1.015626 7.964844.238282 8.835937-.140625.15625-.261719.296875-.367188.414063l-.574218.675781c-5.777344 6.769531-9.84375 11.375-12.085938 13.675781-7.382812 7.585938-6.683594 18.085938-2.902344 24.632813 9.617188 16.664062 26.289063 35.523437 42.46875 48.054687zm0 0"/><path d="m83.585938 91.351562c2.402343 0 4.8125-.859374 6.726562-2.601562 4.085938-3.714844 4.390625-10.039062.675781-14.125-3.71875-4.085938-10.039062-4.386719-14.128906-.671875l-.003906.003906c-4.085938 3.714844-4.382813 10.035157-.667969 14.125 1.972656 2.167969 4.679688 3.269531 7.398438 3.269531zm0 0"/><path d="m392.433594 390.871094-.003906.007812c-3.714844 4.085938-3.410157 10.40625.675781 14.121094 1.914062 1.742188 4.320312 2.601562 6.722656 2.601562 2.71875 0 5.429687-1.105468 7.402344-3.277343 3.71875-4.085938 3.414062-10.410157-.671875-14.125-4.085938-3.714844-10.410156-3.414063-14.125.671875zm0 0"/>
    </symbol>
</svg>

</svg>